<svg xmlns="http://www.w3.org/2000/svg" xmlns:xlink="http://www.w3.org/1999/xlink" width="1200" zoomAndPan="magnify" viewBox="0 0 900 506.249968" height="675" preserveAspectRatio="xMidYMid meet" version="1.2"><defs><clipPath id="97ce647d80"><path d="M 0.664062 0 L 899.332031 0 L 899.332031 505.5 L 0.664062 505.5 Z M 0.664062 0 "/></clipPath><clipPath id="a7809fcad6"><path d="M 147 148.851562 L 780 148.851562 L 780 366 L 147 366 Z M 147 148.851562 "/></clipPath></defs><g id="13b882e5ba"><g clip-rule="nonzero" clip-path="url(#97ce647d80)"><path style=" stroke:none;fill-rule:nonzero;fill:#ffffff;fill-opacity:1;" d="M 0.664062 0 L 899.335938 0 L 899.335938 505.5 L 0.664062 505.5 Z M 0.664062 0 "/><path style=" stroke:none;fill-rule:nonzero;fill:#000000;fill-opacity:1;" d="M 0.664062 0 L 899.335938 0 L 899.335938 505.5 L 0.664062 505.5 Z M 0.664062 0 "/></g><g clip-rule="nonzero" clip-path="url(#a7809fcad6)"><path style=" stroke:none;fill-rule:nonzero;fill:#ffffff;fill-opacity:1;" d="M 228.058594 253.046875 C 228.058594 275.113281 216.117188 289.585938 194.410156 289.585938 C 189.707031 289.585938 185.367188 288.863281 181.386719 287.777344 L 181.386719 220.125 C 185.730469 218.675781 190.433594 217.589844 195.136719 217.589844 C 212.5 217.589844 228.058594 228.804688 228.058594 253.046875 M 262.0625 251.597656 C 262.0625 210.71875 237.464844 188.648438 199.476562 188.648438 C 183.195312 188.648438 164.382812 192.265625 147.378906 198.417969 L 147.378906 364.113281 C 153.167969 365.199219 158.957031 365.921875 164.746094 365.921875 C 170.171875 365.921875 175.960938 365.199219 181.386719 364.113281 L 181.386719 317.082031 C 185.003906 317.441406 189.707031 318.167969 195.132812 318.167969 C 237.824219 318.167969 262.0625 292.839844 262.0625 251.597656 M 747.933594 241.105469 L 701.625 241.105469 C 704.519531 223.378906 713.203125 215.421875 725.503906 215.421875 C 739.25 215.421875 747.933594 225.1875 747.933594 241.105469 M 779.769531 244.722656 C 779.769531 212.164062 758.0625 189.011719 726.226562 189.011719 C 690.773438 189.011719 667.257812 213.972656 667.257812 254.492188 C 667.257812 294.648438 692.21875 318.527344 730.207031 318.527344 C 745.402344 318.527344 759.875 316.355469 772.898438 310.929688 C 772.898438 301.164062 770.726562 294.648438 766.023438 285.96875 C 758.0625 288.863281 746.847656 291.753906 737.082031 291.753906 C 713.566406 291.753906 703.4375 282.710938 700.902344 264.621094 L 777.960938 264.621094 C 779.410156 257.386719 779.769531 250.875 779.769531 244.722656 M 279.429688 180.328125 C 289.921875 182.136719 302.222656 182.859375 314.523438 180.328125 L 314.523438 150.660156 C 303.667969 148.492188 291.730469 148.128906 279.429688 150.660156 Z M 279.429688 191.542969 L 279.429688 315.273438 C 290.28125 317.804688 302.945312 317.804688 314.160156 315.273438 L 314.160156 191.542969 C 302.945312 194.074219 289.921875 194.074219 279.429688 191.542969 M 527.609375 290.671875 C 523.269531 292.117188 517.84375 292.84375 513.140625 292.84375 C 497.582031 292.84375 489.984375 286.328125 489.984375 276.5625 C 489.984375 265.707031 498.304688 258.835938 516.035156 258.835938 C 520.011719 258.835938 523.992188 259.195312 527.609375 260.644531 Z M 560.53125 310.929688 L 560.53125 237.851562 C 560.53125 206.015625 544.253906 188.289062 505.902344 188.289062 C 491.433594 188.289062 477.324219 190.457031 466.46875 196.609375 L 466.46875 197.695312 C 466.46875 207.101562 469 214.699219 473.34375 221.210938 C 482.386719 216.867188 491.070312 215.058594 501.5625 215.058594 C 519.652344 215.058594 527.609375 220.484375 527.609375 237.488281 C 523.992188 237.128906 519.289062 236.765625 513.863281 236.765625 C 477.324219 236.765625 458.871094 253.769531 458.871094 277.648438 C 458.871094 302.972656 477.324219 318.167969 512.054688 318.167969 C 529.417969 318.167969 549.679688 314.546875 560.53125 310.929688 M 661.832031 312.738281 C 662.917969 303.332031 661.46875 295.375 657.851562 288.5 C 653.511719 289.949219 648.082031 290.671875 643.019531 290.671875 C 631.804688 290.671875 626.738281 285.246094 626.738281 268.242188 L 626.738281 217.953125 L 657.128906 217.953125 C 659.296875 208.910156 659.296875 199.503906 657.128906 191.179688 L 626.738281 191.179688 L 626.738281 150.660156 C 615.160156 148.128906 603.222656 148.128906 592.371094 150.660156 L 592.371094 191.179688 L 572.472656 191.179688 C 570.300781 199.503906 570.300781 208.910156 572.472656 217.953125 L 592.371094 217.953125 L 592.371094 267.878906 C 592.371094 299.714844 606.117188 317.441406 638.316406 317.441406 C 649.167969 317.441406 656.765625 315.632812 661.832031 312.738281 "/></g><path style=" stroke:none;fill-rule:nonzero;fill:#3ec4fc;fill-opacity:1;" d="M 400.625 222.65625 L 393.75 248.703125 L 400.988281 248.703125 C 425.589844 248.703125 433.546875 235.679688 442.230469 215.058594 L 452.359375 190.820312 C 417.992188 188.289062 407.859375 195.160156 400.625 222.65625 "/><path style=" stroke:none;fill-rule:nonzero;fill:#ffbd00;fill-opacity:1;" d="M 328.992188 191.183594 L 339.121094 215.421875 C 347.804688 236.042969 355.765625 249.066406 380.367188 249.066406 L 387.601562 249.066406 L 380.726562 223.019531 C 373.492188 195.160156 363.363281 188.289062 328.992188 191.183594 "/><path style=" stroke:none;fill-rule:nonzero;fill:#f18b37;fill-opacity:1;" d="M 380.726562 283.796875 L 387.601562 257.75 L 380.367188 257.75 C 355.765625 257.75 347.804688 270.773438 339.121094 291.394531 L 328.992188 315.632812 C 363.363281 318.167969 373.492188 311.292969 380.726562 283.796875 "/><path style=" stroke:none;fill-rule:nonzero;fill:#0090db;fill-opacity:1;" d="M 452.359375 315.273438 L 442.230469 291.03125 C 433.546875 270.410156 425.589844 257.386719 400.988281 257.386719 L 393.75 257.386719 L 400.625 283.4375 C 407.863281 311.292969 417.992188 318.167969 452.359375 315.273438 "/></g></svg>